<svg width="26" height="26" viewBox="0 0 26 26" fill="none" xmlns="http://www.w3.org/2000/svg">
<path d="M17.25 12.4C17.25 14.8568 15.3208 16.8 13 16.8V18.8C16.4781 18.8 19.25 15.9079 19.25 12.4H17.25ZM13 16.8C10.6792 16.8 8.75 14.8568 8.75 12.4H6.75C6.75 15.9079 9.52185 18.8 13 18.8V16.8ZM8.75 12.4C8.75 9.9432 10.6792 8 13 8V6C9.52185 6 6.75 8.89212 6.75 12.4H8.75ZM13 8C15.3208 8 17.25 9.9432 17.25 12.4H19.25C19.25 8.89212 16.4781 6 13 6V8ZM2 13C2 6.92487 6.92487 2 13 2V0C5.8203 0 0 5.8203 0 13H2ZM13 2C19.0751 2 24 6.92487 24 13H26C26 5.8203 20.1797 0 13 0V2ZM24 13C24 16.7009 22.1733 19.9751 19.368 21.9705L20.5272 23.6003C23.8374 21.2458 26 17.3755 26 13H24ZM19.368 21.9705C17.571 23.2486 15.3748 24 13 24V26C15.8037 26 18.4029 25.1113 20.5272 23.6003L19.368 21.9705ZM12.9776 18.7997C15.715 18.861 17.1081 19.3824 17.8485 20.0258C18.5549 20.6396 18.8494 21.5248 18.9504 22.8608L20.9447 22.71C20.8302 21.1954 20.4662 19.6508 19.1603 18.5161C17.8884 17.4109 15.9154 16.8649 13.0224 16.8002L12.9776 18.7997ZM13 24C10.6248 24 8.4282 23.2484 6.63111 21.9699L5.47171 23.5995C7.59624 25.111 10.1958 26 13 26V24ZM6.63111 21.9699C3.82626 19.9744 2 16.7005 2 13H0C0 17.375 2.16213 21.245 5.47171 23.5995L6.63111 21.9699ZM7.04871 22.8581C7.14922 21.4936 7.44534 20.5795 8.15134 19.9585C8.8829 19.3149 10.265 18.8 13 18.8V16.8C10.0957 16.8 8.10998 17.3311 6.83035 18.4568C5.52517 19.605 5.16666 21.1833 5.05411 22.7112L7.04871 22.8581Z" fill="#868282"/>
</svg>
